<svg width="110" height="40" viewBox="0 0 110 40" fill="none" xmlns="http://www.w3.org/2000/svg">
<path d="M53.8995 11.2075C49.7177 10.7923 46.187 13.9915 46.187 17.9722V28.2293H49.4924V25.3231L56.8543 22.9542V28.2293H60.1597V18.0943C60.1346 14.5776 57.4803 11.5738 53.8995 11.2075ZM56.8543 19.6085L49.4924 22.0018V18.0699C49.4924 16.4337 50.5942 14.9684 52.2218 14.5532C54.6758 13.9427 56.8793 15.7499 56.8793 18.0211V19.6085H56.8543Z" fill="white"/>
<path d="M85.8013 11.5737H79.3408V28.2292H82.6462V25.201H85.7011C89.2819 25.201 92.387 22.5879 92.7626 19.12C93.1883 15.0416 89.9079 11.5737 85.8013 11.5737ZM89.4071 19.3398C88.9814 20.9272 87.479 22.0017 85.8013 22.0017H82.6211V14.7974H85.8263C88.1801 14.7974 90.0331 16.9465 89.4071 19.3398Z" fill="white"/>
<path d="M107.311 23.6625C106.259 24.7615 104.807 25.3476 103.28 25.3476C100.225 25.3476 97.7205 22.9054 97.7205 19.926C97.7205 16.9466 100.225 14.5044 103.28 14.5044C104.757 14.5044 106.159 15.0661 107.211 16.0918L109.565 13.7962C107.887 12.1599 105.658 11.2563 103.28 11.2563C98.3716 11.2563 94.3901 15.1394 94.3901 19.926C94.3901 24.7126 98.3716 28.5957 103.28 28.5957C105.708 28.5957 108.062 27.5944 109.74 25.8849L107.311 23.6625Z" fill="white"/>
<path d="M70.5764 11.2075C66.3946 10.7923 62.8389 13.9915 62.8389 17.9722V28.2293H66.1442V25.3231L73.5061 22.9542V28.2293H76.8115V18.0943C76.8115 14.5776 74.1572 11.5738 70.5764 11.2075ZM73.5312 19.6085L66.1693 22.0018V18.0699C66.1693 16.4337 67.271 14.9684 68.8987 14.5532C71.3527 13.9427 73.5562 15.7499 73.5562 18.0211V19.6085H73.5312Z" fill="white"/>
<path d="M20.5069 0C9.20821 0 0 8.98058 0 20C0 31.0194 9.20821 40 20.5069 40C31.8057 40 41.0139 31.0194 41.0139 20C41.0139 8.98058 31.8057 0 20.5069 0ZM21.4029 38.4223V33.5922H22.2739H22.2988C23.1698 33.6165 23.9911 33.9563 24.5884 34.5388C24.7626 34.7087 25.0115 34.8058 25.2355 34.8058C25.4595 34.8058 25.7083 34.7087 25.8825 34.5388C26.231 34.199 26.231 33.6165 25.8825 33.2767C24.8871 32.3058 23.5929 31.7961 22.1993 31.7961H20.9549C20.93 31.7961 20.9051 31.7961 20.8802 31.8204H18.7151C16.9481 31.8204 15.4797 30.4854 15.3802 28.7864C15.3304 27.8883 15.6291 27.0388 16.2761 26.3835C16.9232 25.7039 17.8689 25.3155 18.8395 25.3155H22.2739C22.7717 25.3155 23.1947 24.9029 23.1947 24.4175C23.1947 23.932 22.7717 23.5194 22.2739 23.5194H18.8395H18.74C16.973 23.5194 15.5046 22.1845 15.4051 20.4854C15.3553 19.5874 15.654 18.7379 16.301 18.0825C16.9481 17.4029 17.8938 17.0146 18.8644 17.0146H23.6178H27.5002C27.774 17.0146 28.0228 16.8932 28.197 16.6748L28.6699 16.0922C28.7943 15.9223 28.7445 15.7039 28.5455 15.6068C27.7242 15.2427 26.1065 14.3932 25.111 14.3932C23.9165 14.3932 23.3192 15.1942 22.4232 15.2184H21.4278V14.7816C22.5726 13.1068 24.4889 12.0631 26.5296 12.0146H33.5229V26.8689H26.8282C27.2762 26.0437 27.5002 25.1214 27.4255 24.1748C27.2513 21.5291 24.9866 19.466 22.249 19.466H18.74C18.2422 19.466 17.8191 19.8786 17.8191 20.3641C17.8191 20.8495 18.2422 21.2621 18.74 21.2621H22.249C24.016 21.2621 25.4843 22.5971 25.5839 24.2961C25.6337 25.1942 25.335 26.0437 24.688 26.699C24.0409 27.3786 23.0952 27.767 22.1246 27.767H18.74C18.2422 27.767 17.8191 28.1796 17.8191 28.665C17.8191 29.1505 18.2422 29.5631 18.74 29.5631H22.1495C22.7468 29.5631 23.3192 29.466 23.8916 29.2718C23.9662 29.2476 24.016 29.2476 24.0907 29.199C24.8622 28.8592 25.7083 28.665 26.5296 28.6408H35.3396V10.1942H26.5047C24.6133 10.2427 22.8214 10.9223 21.4278 12.0874V9.95146C22.8214 9.56311 23.8418 8.32524 23.8418 6.86893C23.8418 5.09709 22.3486 3.64078 20.5318 3.64078C18.7151 3.64078 17.2218 5.09709 17.2218 6.86893C17.2218 8.39806 18.3169 9.66019 19.7603 10V12.0874C18.3418 10.9223 16.5748 10.2427 14.6585 10.1942H5.79868V28.6408H13.5386C13.5386 28.7379 13.5386 28.8107 13.5386 28.9078C13.7128 31.5534 15.9775 33.6165 18.7151 33.6165H19.7105V38.4466C9.63129 38.0583 1.56788 29.9272 1.56788 20.0243C1.56788 9.85437 10.0544 1.57767 20.482 1.57767C30.9097 1.57767 39.3962 9.85437 39.3962 20.0243C39.4211 29.8786 31.4323 37.9612 21.4029 38.4223ZM13.8621 26.8204H7.64033V11.966H14.6087C16.6743 12.0146 18.5906 13.0583 19.7354 14.733V15.1699H18.8395C17.3463 15.1699 15.9277 15.7767 14.9322 16.8204C13.9616 17.8398 13.4639 19.1748 13.5634 20.5825C13.663 22.1845 14.5589 23.568 15.8282 24.4175C15.5046 24.6359 15.206 24.8786 14.9571 25.1456C14.4594 25.6311 14.0861 26.2136 13.8621 26.8204ZM20.5069 8.49515C19.5861 8.49515 18.8395 7.76699 18.8395 6.86893C18.8395 5.97087 19.5861 5.24272 20.5069 5.24272C21.4278 5.24272 22.1744 5.97087 22.1744 6.86893C22.1744 7.76699 21.4278 8.49515 20.5069 8.49515Z" fill="white"/>
</svg>
