<svg width="20" height="16" viewBox="0 0 20 16" fill="none" xmlns="http://www.w3.org/2000/svg">
<path d="M20 1.89411C19.2651 2.21538 18.4739 2.43265 17.644 2.52972C18.4916 2.03049 19.1419 1.23886 19.4482 0.295851C18.6547 0.758112 17.7778 1.0944 16.841 1.27469C16.0943 0.489995 15.0273 0 13.8463 0C11.5819 0 9.74467 1.8086 9.74467 4.03901C9.74467 4.35565 9.77989 4.66305 9.85033 4.9589C6.4401 4.79018 3.41727 3.18382 1.39227 0.737301C1.03891 1.33594 0.837 2.03049 0.837 2.7701C0.837 4.17075 1.56131 5.40725 2.66244 6.13184C1.99096 6.11221 1.35704 5.92853 0.802956 5.62805V5.67776C0.802956 7.63541 2.21752 9.26837 4.09579 9.63819C3.75183 9.73291 3.38909 9.78027 3.01461 9.78027C2.75049 9.78027 2.49222 9.75605 2.24218 9.70859C2.76457 11.3126 4.27892 12.4811 6.07501 12.5122C4.67101 13.5963 2.90074 14.2422 0.979044 14.2422C0.648 14.2422 0.320478 14.2238 0 14.1868C1.81604 15.3309 3.9737 16 6.28984 16C13.8381 16 17.9644 9.84619 17.9644 4.5082C17.9644 4.33254 17.9609 4.15687 17.9539 3.98468C18.7557 3.41495 19.4518 2.70422 20 1.89411Z" fill="white"/>
</svg>
