<svg width="19" height="18" viewBox="0 0 19 18" fill="none" xmlns="http://www.w3.org/2000/svg">
<path d="M10.1485 18H1.04866C0.469329 18 0 17.5551 0 17.0065V0.993456C0 0.44469 0.469405 0 1.04866 0H17.9514C18.5305 0 19 0.44469 19 0.993456V17.0065C19 17.5551 18.5304 18 17.9514 18H13.1097V11.0294H15.5794L15.9492 8.31285H13.1097V6.57849C13.1097 5.79199 13.3403 5.256 14.5307 5.256L16.0492 5.25538V2.82566C15.7866 2.79256 14.8853 2.71859 13.8366 2.71859C11.6473 2.71859 10.1485 3.98457 10.1485 6.30945V8.31285H7.67248V11.0294H10.1485V18Z" fill="white"/>
</svg>
