<svg width="19" height="19" viewBox="0 0 19 19" fill="none" xmlns="http://www.w3.org/2000/svg">
<rect x="1" width="18" height="18" fill="black" fill-opacity="0.01"/>
<path fill-rule="evenodd" clip-rule="evenodd" d="M4.83908 5.82805H4.82003C3.86753 5.82805 3.25 5.2049 3.25 4.415C3.25 3.60973 3.88579 2.99963 4.85733 2.99963C5.82808 2.99963 6.42498 3.60819 6.44403 4.41269C6.44403 5.20259 5.82808 5.82805 4.83908 5.82805ZM16.75 14.9996H13.7663V10.7812C13.7663 9.67704 13.2996 8.92329 12.2732 8.92329C11.4883 8.92329 11.0517 9.43194 10.8485 9.92214C10.7814 10.0771 10.7826 10.2859 10.7839 10.5009C10.784 10.53 10.7842 10.5592 10.7842 10.5884V14.9996H7.82831C7.82831 14.9996 7.86641 7.52709 7.82831 6.84786H10.7842V8.12724C10.9589 7.56782 11.9034 6.76949 13.4107 6.76949C15.2808 6.76949 16.75 7.94207 16.75 10.4669V14.9996ZM6.22179 6.84759H3.59053V14.9994H6.22179V6.84759Z" fill="white"/>
<path d="M17.4947 18.0053H1.8563C1.19413 18.0053 0.672852 17.47 0.672852 16.8219V1.18345C0.672852 0.53537 1.20822 0 1.8563 0H17.4806C18.1428 0 18.6641 0.53537 18.6641 1.18345V16.8078C18.6782 17.47 18.1428 18.0053 17.4947 18.0053Z" fill="white"/>
<path d="M10.2953 7.86155C10.2953 7.55159 10.2812 7.24164 10.2953 6.93169C10.2953 6.77672 10.253 6.73445 10.0981 6.73445C9.36545 6.74854 8.63283 6.73445 7.90022 6.73445C7.6748 6.73445 7.6748 6.73445 7.6748 6.95987C7.6748 9.69307 7.6748 12.4404 7.6748 15.1736C7.6748 15.3426 7.73116 15.399 7.90022 15.399C8.66101 15.3849 9.4218 15.399 10.1826 15.399C10.408 15.399 10.408 15.399 10.408 15.1736C10.408 13.7929 10.408 12.4122 10.408 11.0456C10.408 10.7638 10.4221 10.468 10.4784 10.1862C10.5771 9.60854 10.8448 9.12953 11.4787 8.97455C11.6619 8.93229 11.8732 8.9182 12.0564 8.9182C12.7045 8.93229 13.0989 9.22815 13.2398 9.84805C13.3244 10.2003 13.3525 10.5525 13.3525 10.9188C13.3666 12.3417 13.3666 13.7506 13.3525 15.1736C13.3525 15.3426 13.4089 15.399 13.578 15.399C14.3387 15.3849 15.0995 15.399 15.8603 15.399C16.0294 15.399 16.0857 15.3567 16.0857 15.1877C16.0857 13.5393 16.0998 11.905 16.0717 10.2566C16.0576 9.70716 15.9871 9.1577 15.8603 8.62233C15.6349 7.6643 14.8318 6.9176 14.0992 6.69219C13.8175 6.60765 13.5357 6.50903 13.0567 6.50903C12.2254 6.50903 11.9014 6.57948 11.3801 6.86125C10.9434 7.10076 10.5912 7.45297 10.2953 7.86155Z" fill="#034246"/>
<path d="M3.32171 11.0596C3.32171 9.693 3.32171 8.31231 3.32171 6.94571C3.32171 6.79073 3.36397 6.73438 3.51895 6.73438C4.29382 6.74846 5.0687 6.73438 5.84358 6.73438C5.98447 6.73438 6.04082 6.77664 6.04082 6.91753C6.04082 9.67891 6.04082 12.4403 6.04082 15.2017C6.04082 15.3426 5.99855 15.3989 5.85767 15.3848C5.0687 15.3848 4.27974 15.3848 3.49077 15.3848C3.33579 15.3848 3.30762 15.3285 3.30762 15.1876C3.32171 13.821 3.32171 12.4403 3.32171 11.0596Z" fill="#034246"/>
<path d="M4.67276 5.57761C3.79952 5.57761 3.10938 4.88747 3.10938 4.01423C3.10938 3.14099 3.79952 2.43677 4.67276 2.43677C5.54599 2.43677 6.23614 3.14099 6.23614 4.01423C6.23614 4.88747 5.54599 5.57761 4.67276 5.57761Z" fill="#034246"/>
</svg>
