<svg width="19" height="19" viewBox="0 0 19 19" fill="none" xmlns="http://www.w3.org/2000/svg">
<path d="M9.5 1.71445C12.0383 1.71445 12.3352 1.72187 13.3371 1.76641C14.2648 1.81094 14.7695 1.9668 15.1035 2.09297C15.5488 2.26367 15.8605 2.47148 16.1945 2.80547C16.5285 3.13945 16.7363 3.45117 16.907 3.89648C17.0406 4.23047 17.1891 4.73516 17.2336 5.66289C17.2781 6.66484 17.2855 6.96172 17.2855 9.5C17.2855 12.0383 17.2781 12.3352 17.2336 13.3371C17.1891 14.2648 17.0332 14.7695 16.907 15.1035C16.7363 15.5488 16.5285 15.8605 16.1945 16.1945C15.8605 16.5285 15.5488 16.7363 15.1035 16.907C14.7695 17.0406 14.2648 17.1891 13.3371 17.2336C12.3352 17.2781 12.0383 17.2855 9.5 17.2855C6.96172 17.2855 6.66484 17.2781 5.66289 17.2336C4.73516 17.1891 4.23047 17.0332 3.89648 16.907C3.45117 16.7363 3.13945 16.5285 2.80547 16.1945C2.47148 15.8605 2.26367 15.5488 2.09297 15.1035C1.95938 14.7695 1.81094 14.2648 1.76641 13.3371C1.72187 12.3352 1.71445 12.0383 1.71445 9.5C1.71445 6.96172 1.72187 6.66484 1.76641 5.66289C1.81094 4.73516 1.9668 4.23047 2.09297 3.89648C2.26367 3.45117 2.47148 3.13945 2.80547 2.80547C3.13945 2.47148 3.45117 2.26367 3.89648 2.09297C4.23047 1.95938 4.73516 1.81094 5.66289 1.76641C6.66484 1.72187 6.96172 1.71445 9.5 1.71445ZM9.5 0C6.91719 0 6.59805 0.00742188 5.58125 0.059375C4.57187 0.103906 3.88164 0.267188 3.28047 0.497266C2.65703 0.742188 2.12266 1.06133 1.5957 1.5957C1.06875 2.13008 0.742188 2.64961 0.497266 3.28047C0.259766 3.88164 0.103906 4.57188 0.059375 5.58867C0.00742188 6.59805 0 6.91719 0 9.5C0 12.0828 0.00742188 12.402 0.059375 13.4187C0.103906 14.4281 0.267188 15.1184 0.497266 15.727C0.742188 16.3504 1.06133 16.8848 1.5957 17.4117C2.12266 17.9387 2.65703 18.2652 3.28047 18.5102C3.88164 18.7477 4.57188 18.9035 5.58867 18.948C6.60547 18.9926 6.92461 19.0074 9.50742 19.0074C12.0902 19.0074 12.4094 19 13.4262 18.948C14.4355 18.9035 15.1258 18.7402 15.7344 18.5102C16.3578 18.2652 16.8922 17.9461 17.4191 17.4117C17.9461 16.8848 18.2727 16.3504 18.5176 15.727C18.7551 15.1258 18.9109 14.4355 18.9555 13.4187C19 12.402 19.0148 12.0828 19.0148 9.5C19.0148 6.91719 19.0074 6.59805 18.9555 5.58125C18.9109 4.57187 18.7477 3.88164 18.5176 3.27305C18.2727 2.64961 17.9535 2.11523 17.4191 1.58828C16.8848 1.06133 16.3504 0.742188 15.7195 0.497266C15.1184 0.259766 14.4281 0.103906 13.4113 0.059375C12.402 0.00742188 12.0828 0 9.5 0ZM9.5 4.62383C6.80586 4.62383 4.62383 6.80586 4.62383 9.5C4.62383 12.1941 6.80586 14.3762 9.5 14.3762C12.1941 14.3762 14.3762 12.1941 14.3762 9.5C14.3762 6.80586 12.1941 4.62383 9.5 4.62383ZM9.5 12.6691C7.74844 12.6691 6.33086 11.2516 6.33086 9.5C6.33086 7.74844 7.74844 6.33086 9.5 6.33086C11.2516 6.33086 12.6691 7.74844 12.6691 9.5C12.6691 11.2516 11.2516 12.6691 9.5 12.6691ZM15.7121 4.43086C15.7121 5.06172 15.2 5.57383 14.5691 5.57383C13.9383 5.57383 13.4336 5.06172 13.4336 4.43086C13.4336 3.8 13.9457 3.28789 14.5766 3.28789C15.2074 3.28789 15.7121 3.8 15.7121 4.43086Z" fill="white"/>
</svg>
