<svg xmlns="http://www.w3.org/2000/svg" viewBox="0 0 1000 376.42"><defs><style>.cls-1{fill:#008375;}.cls-2{fill:#004750;}</style></defs><g id="Layer_2" data-name="Layer 2"><g id="Layer_1-2" data-name="Layer 1"><path class="cls-1" d="M188.21,0C84.43,0,0,84.43,0,188.21S84.43,376.42,188.21,376.42,376.41,292,376.41,188.21,292,0,188.21,0m8.31,361.66V316.31h8a1.89,1.89,0,0,0,.23-.05,30.75,30.75,0,0,1,21.08,9,8.43,8.43,0,0,0,11.92-11.93,47.51,47.51,0,0,0-33.85-14H192.43c-.23,0-.42.11-.64.12h-19.9a30.77,30.77,0,0,1-30.65-28.66,30,30,0,0,1,8.13-22.71A32.2,32.2,0,0,1,172.84,238h31.64a8.43,8.43,0,0,0,0-16.86H171.89a30.77,30.77,0,0,1-30.65-28.67,30,30,0,0,1,8.13-22.71,32.19,32.19,0,0,1,23.47-10.06h79.37a8.29,8.29,0,0,0,6.48-3.12L263,151.1a2.92,2.92,0,0,0-1.1-4.48c-7.45-3.33-22.38-11.47-31.57-11.47-11,0-16.4,7.49-24.63,7.68h-9.21v-4.07a58,58,0,0,1,46.82-26.07h64.13V252.48H246.13A46.68,46.68,0,0,0,251.7,227a47.67,47.67,0,0,0-47.48-44.42H172a8.43,8.43,0,1,0,0,16.86h32.27a30.77,30.77,0,0,1,30.65,28.67,30,30,0,0,1-8.13,22.71,32.18,32.18,0,0,1-23.46,10.07H172a8.43,8.43,0,1,0,0,16.86h31.33a49.48,49.48,0,0,0,15.89-2.67,8.41,8.41,0,0,0,1.78-.58,57.86,57.86,0,0,1,22.39-5.17h81V95.82h-81.2a74.84,74.84,0,0,0-46.62,17.85V93.6A30.26,30.26,0,1,0,181.1,94v19.69a75.13,75.13,0,0,0-46.83-17.85h-81V269.34h71.09c0,.85,0,1.7,0,2.55a47.68,47.68,0,0,0,47.48,44.42h9.21v45.38C88.63,358,14.54,281.59,14.54,188.21c0-95.76,77.91-173.67,173.67-173.67S361.87,92.45,361.87,188.21c0,93-73.44,169.1-165.35,173.45M127.2,252.48H70.14V112.69h63.92a58.11,58.11,0,0,1,47,26.08v4.07h-8.26a49.15,49.15,0,0,0-35.78,15.4,46.73,46.73,0,0,0-12.65,35.35,47.51,47.51,0,0,0,20.72,36.09,48,48,0,0,0-8.07,6.87,47,47,0,0,0-9.86,15.94m61-172.57a15.39,15.39,0,1,1,15.38-15.38,15.4,15.4,0,0,1-15.38,15.38"/><path class="cls-2" d="M490.74,107.83a63.75,63.75,0,0,0-70.48,63.28v95.94h30.08V239.94l67.23-22.21v49.32h30.07V172.2c0-32.74-24.33-61-56.9-64.37m26.83,78.53-67.23,22.47v-36.9c0-15.25,10-29,24.8-32.8a33.7,33.7,0,0,1,42.43,32.49Z"/><path class="cls-2" d="M642.89,107.83a63.75,63.75,0,0,0-70.48,63.28v95.94h30.08V239.94l67.23-22.21v49.32H699.8V172.2c0-32.74-24.34-61-56.91-64.37m26.83,78.53-67.23,22.47v-36.9c0-15.25,10-29,24.81-32.8a33.69,33.69,0,0,1,42.42,32.49Z"/><path class="cls-2" d="M781.85,111.35H722.8v155.7h30.08V238.74h27.93c32.75,0,61-24.34,64.38-56.91a63.77,63.77,0,0,0-63.34-70.48m0,97.31h-29V141.43h29.28a33.69,33.69,0,0,1,32.49,42.42c-3.78,14.78-17.54,24.81-32.8,24.81"/><path class="cls-2" d="M977.9,224.36a50.17,50.17,0,0,1-36.83,15.87,50.68,50.68,0,1,1,35.83-86.5l21.5-21.51a81.08,81.08,0,1,0-57.33,138.42A81.44,81.44,0,0,0,1000,245.25Z"/><path class="cls-1" d="M425.72,293.72v39.75h-7.84V293.72Z"/><path class="cls-1" d="M463.21,293.72v39.75h-6l-17-24.31v24.31h-7.84V293.72h6l17,24.25V293.72Z"/><path class="cls-1" d="M496.15,301.21H485.42v32.26h-7.84V301.21H466.9v-7.49h29.25Z"/><path class="cls-1" d="M524.38,326v7.49H499.79V293.72H524.1v7.49H507.63v8.46h15v7.39h-15V326Z"/><path class="cls-1" d="M543,319.67h-6v13.8h-7.84V293.72h15.91a13.19,13.19,0,0,1,13.23,13.17,13,13,0,0,1-7.67,11.59l8.8,15H551Zm-6-6.87h8.07a5.9,5.9,0,0,0,0-11.76H537Z"/><path class="cls-1" d="M594.13,293.72v39.75h-6l-17-24.31v24.31h-7.84V293.72h6l17,24.25V293.72Z"/><path class="cls-1" d="M624,326.32H608.1l-2.39,7.15h-8.46l13.92-39.75h9.71l14,39.75h-8.52ZM621.5,319l-5.45-16.24L610.6,319Z"/><path class="cls-1" d="M661.38,301.21H650.64v32.26H642.8V301.21H632.13v-7.49h29.25Z"/><path class="cls-1" d="M672.85,293.72v39.75H665V293.72Z"/><path class="cls-1" d="M677.68,313.59a20.65,20.65,0,1,1,20.62,20.68A20.45,20.45,0,0,1,677.68,313.59Zm33.45,0c0-7.66-5.62-13.06-12.83-13.06a13,13,0,1,0,12.83,13.06Z"/><path class="cls-1" d="M754.58,293.72v39.75h-6l-17-24.31v24.31h-7.84V293.72h6l17,24.25V293.72Z"/><path class="cls-1" d="M784.4,326.32H768.55l-2.38,7.15h-8.46l13.91-39.75h9.71l14,39.75h-8.52ZM782,319l-5.45-16.24L771.05,319Z"/><path class="cls-1" d="M821.43,326v7.49h-23V293.72h7.84V326Z"/></g></g></svg>