<svg width="27" height="19" viewBox="0 0 27 19" fill="none" xmlns="http://www.w3.org/2000/svg">
<path d="M26.4039 2.96718C26.2518 2.39326 25.9514 1.86943 25.5329 1.44824C25.1145 1.02704 24.5926 0.723281 24.0197 0.567429C21.9169 0 13.4838 0 13.4838 0C13.4838 0 5.05071 0 2.94797 0.567429C2.37505 0.723281 1.85318 1.02704 1.43471 1.44824C1.01623 1.86943 0.715867 2.39326 0.563735 2.96718C0 5.08396 0 9.5 0 9.5C0 9.5 0 13.916 0.563735 16.0328C0.715867 16.6067 1.01623 17.1306 1.43471 17.5518C1.85318 17.973 2.37505 18.2767 2.94797 18.4326C5.05071 19 13.4838 19 13.4838 19C13.4838 19 21.9169 19 24.0197 18.4326C24.5926 18.2767 25.1145 17.973 25.5329 17.5518C25.9514 17.1306 26.2518 16.6067 26.4039 16.0328C26.9676 13.916 26.9676 9.5 26.9676 9.5C26.9676 9.5 26.9676 5.08396 26.4039 2.96718ZM10.7257 13.5097V5.49032L17.7743 9.5L10.7257 13.5097Z" fill="white"/>
</svg>
